{
	"asset":{
		"generator":"Khronos glTF Blender I/O v4.0.44",
		"version":"2.0"
	},
	"scene":0,
	"scenes":[
		{
			"name":"Scene",
			"nodes":[
				7
			]
		}
	],
	"nodes":[
		{
			"mesh":0,
			"name":"defaultMaterial"
		},
		{
			"children":[
				0
			],
			"name":"Cylinder001"
		},
		{
			"mesh":1,
			"name":"defaultMaterial.001"
		},
		{
			"children":[
				2
			],
			"name":"Cylinder001.001"
		},
		{
			"mesh":2,
			"name":"defaultMaterial.002"
		},
		{
			"children":[
				4
			],
			"name":"Cylinder001.002"
		},
		{
			"children":[
				1,
				3,
				5
			],
			"name":"Collada visual scene group",
			"rotation":[
				0.70710688829422,
				0,
				0,
				0.7071066498756409
			]
		},
		{
			"children":[
				6
			],
			"name":"Sketchfab_model",
			"rotation":[
				-0.2013617604970932,
				-0.1159583181142807,
				-0.01250415574759245,
				0.9725486040115356
			]
		}
	],
	"materials":[
		{
			"doubleSided":true,
			"name":"Material__37",
			"normalTexture":{
				"index":0
			},
			"occlusionTexture":{
				"index":1
			},
			"pbrMetallicRoughness":{
				"baseColorTexture":{
					"index":2
				},
				"metallicRoughnessTexture":{
					"index":1
				}
			}
		},
		{
			"doubleSided":true,
			"name":"Material__28",
			"normalTexture":{
				"index":3
			},
			"occlusionTexture":{
				"index":4
			},
			"pbrMetallicRoughness":{
				"baseColorTexture":{
					"index":5
				},
				"metallicRoughnessTexture":{
					"index":4
				}
			}
		},
		{
			"doubleSided":true,
			"name":"Material__25",
			"normalTexture":{
				"index":6
			},
			"occlusionTexture":{
				"index":7
			},
			"pbrMetallicRoughness":{
				"baseColorTexture":{
					"index":8
				},
				"metallicRoughnessTexture":{
					"index":7
				}
			}
		}
	],
	"meshes":[
		{
			"name":"defaultMaterial",
			"primitives":[
				{
					"attributes":{
						"POSITION":0,
						"NORMAL":1,
						"TEXCOORD_0":2
					},
					"indices":3,
					"material":0
				}
			]
		},
		{
			"name":"defaultMaterial.001",
			"primitives":[
				{
					"attributes":{
						"POSITION":4,
						"NORMAL":5,
						"TEXCOORD_0":6
					},
					"indices":7,
					"material":1
				}
			]
		},
		{
			"name":"defaultMaterial.002",
			"primitives":[
				{
					"attributes":{
						"POSITION":8,
						"NORMAL":9,
						"TEXCOORD_0":10
					},
					"indices":11,
					"material":2
				}
			]
		}
	],
	"textures":[
		{
			"sampler":0,
			"source":0
		},
		{
			"sampler":0,
			"source":1
		},
		{
			"sampler":0,
			"source":2
		},
		{
			"sampler":0,
			"source":3
		},
		{
			"sampler":0,
			"source":4
		},
		{
			"sampler":0,
			"source":5
		},
		{
			"sampler":0,
			"source":6
		},
		{
			"sampler":0,
			"source":7
		},
		{
			"sampler":0,
			"source":8
		}
	],
	"images":[
		{
			"mimeType":"image/png",
			"name":"Material__37_normal",
			"uri":"Material__37_normal.png"
		},
		{
			"mimeType":"image/png",
			"name":"Material__37_metallicRoughness",
			"uri":"Material__37_metallicRoughness.png"
		},
		{
			"mimeType":"image/jpeg",
			"name":"Material__37_baseColor",
			"uri":"Material__37_baseColor.jpg"
		},
		{
			"mimeType":"image/png",
			"name":"Material__28_normal",
			"uri":"Material__28_normal.png"
		},
		{
			"mimeType":"image/png",
			"name":"Material__28_metallicRoughness",
			"uri":"Material__28_metallicRoughness.png"
		},
		{
			"mimeType":"image/jpeg",
			"name":"Material__28_baseColor",
			"uri":"Material__28_baseColor.jpg"
		},
		{
			"mimeType":"image/png",
			"name":"Material__25_normal",
			"uri":"Material__25_normal.png"
		},
		{
			"mimeType":"image/png",
			"name":"Material__25_metallicRoughness",
			"uri":"Material__25_metallicRoughness.png"
		},
		{
			"mimeType":"image/jpeg",
			"name":"Material__25_baseColor",
			"uri":"Material__25_baseColor.jpg"
		}
	],
	"accessors":[
		{
			"bufferView":0,
			"componentType":5126,
			"count":401,
			"max":[
				1,
				0.10437499731779099,
				0.9980270266532898
			],
			"min":[
				-1,
				-0.12450499832630157,
				-0.9980270266532898
			],
			"type":"VEC3"
		},
		{
			"bufferView":1,
			"componentType":5126,
			"count":401,
			"type":"VEC3"
		},
		{
			"bufferView":2,
			"componentType":5126,
			"count":401,
			"type":"VEC2"
		},
		{
			"bufferView":3,
			"componentType":5123,
			"count":1650,
			"type":"SCALAR"
		},
		{
			"bufferView":4,
			"componentType":5126,
			"count":108,
			"max":[
				1,
				-0.11691399663686752,
				0.9980270266532898
			],
			"min":[
				-1,
				-0.12450499832630157,
				-0.9980270266532898
			],
			"type":"VEC3"
		},
		{
			"bufferView":5,
			"componentType":5126,
			"count":108,
			"type":"VEC3"
		},
		{
			"bufferView":6,
			"componentType":5126,
			"count":108,
			"type":"VEC2"
		},
		{
			"bufferView":7,
			"componentType":5123,
			"count":300,
			"type":"SCALAR"
		},
		{
			"bufferView":8,
			"componentType":5126,
			"count":201,
			"max":[
				1,
				0.1245030015707016,
				0.9980270266532898
			],
			"min":[
				-1,
				-0.11691399663686752,
				-0.9980270266532898
			],
			"type":"VEC3"
		},
		{
			"bufferView":9,
			"componentType":5126,
			"count":201,
			"type":"VEC3"
		},
		{
			"bufferView":10,
			"componentType":5126,
			"count":201,
			"type":"VEC2"
		},
		{
			"bufferView":11,
			"componentType":5123,
			"count":1050,
			"type":"SCALAR"
		}
	],
	"bufferViews":[
		{
			"buffer":0,
			"byteLength":4812,
			"byteOffset":0,
			"target":34962
		},
		{
			"buffer":0,
			"byteLength":4812,
			"byteOffset":4812,
			"target":34962
		},
		{
			"buffer":0,
			"byteLength":3208,
			"byteOffset":9624,
			"target":34962
		},
		{
			"buffer":0,
			"byteLength":3300,
			"byteOffset":12832,
			"target":34963
		},
		{
			"buffer":0,
			"byteLength":1296,
			"byteOffset":16132,
			"target":34962
		},
		{
			"buffer":0,
			"byteLength":1296,
			"byteOffset":17428,
			"target":34962
		},
		{
			"buffer":0,
			"byteLength":864,
			"byteOffset":18724,
			"target":34962
		},
		{
			"buffer":0,
			"byteLength":600,
			"byteOffset":19588,
			"target":34963
		},
		{
			"buffer":0,
			"byteLength":2412,
			"byteOffset":20188,
			"target":34962
		},
		{
			"buffer":0,
			"byteLength":2412,
			"byteOffset":22600,
			"target":34962
		},
		{
			"buffer":0,
			"byteLength":1608,
			"byteOffset":25012,
			"target":34962
		},
		{
			"buffer":0,
			"byteLength":2100,
			"byteOffset":26620,
			"target":34963
		}
	],
	"samplers":[
		{
			"magFilter":9729,
			"minFilter":9987
		}
	],
	"buffers":[
		{
			"byteLength":28720,
			"uri":"shield.bin"
		}
	]
}
