{
	"asset":{
		"generator":"Khronos glTF Blender I/O v4.0.44",
		"version":"2.0"
	},
	"scene":0,
	"scenes":[
		{
			"name":"Scene",
			"nodes":[
				11
			]
		}
	],
	"nodes":[
		{
			"mesh":0,
			"name":"Material2"
		},
		{
			"mesh":1,
			"name":"Material2.001"
		},
		{
			"name":"Material2.002"
		},
		{
			"children":[
				0,
				1,
				2
			],
			"name":"a_1"
		},
		{
			"children":[
				3
			],
			"name":"instance_0",
			"rotation":[
				0.70710688829422,
				0,
				0,
				0.7071066498756409
			],
			"translation":[
				-5.317991256713867,
				6.624921798706055,
				-1.8878120183944702
			]
		},
		{
			"name":"ID1"
		},
		{
			"children":[
				5
			],
			"name":"skp_camera_Last_Saved_SketchUp_View",
			"rotation":[
				0.6206840872764587,
				0.14499332010746002,
				0.17528048157691956,
				0.7503367066383362
			],
			"translation":[
				-4.504137992858887,
				5.077009677886963,
				-0.2715693414211273
			]
		},
		{
			"name":"ID2"
		},
		{
			"children":[
				7
			],
			"name":"skp_camera_\ufffd\ufffd\ufffd\ufffd\ufffd\ufffd\ufffd\ufffd\ufffd\ufffd_\ufffd\ufffd\ufffd1",
			"rotation":[
				0.6206840872764587,
				0.14499332010746002,
				0.17528048157691956,
				0.7503367066383362
			],
			"translation":[
				-4.504137992858887,
				5.077009677886963,
				-0.2715693414211273
			]
		},
		{
			"children":[
				4,
				6,
				8
			],
			"name":"SketchUp"
		},
		{
			"children":[
				9
			],
			"name":"Collada visual scene group"
		},
		{
			"children":[
				10
			],
			"name":"Sketchfab_model",
			"rotation":[
				-0.70710688829422,
				0,
				0,
				0.7071066498756409
			],
			"scale":[
				1.126117467880249,
				1.1261175870895386,
				1.1261175870895386
			],
			"translation":[
				5.978853702545166,
				2.2006137371063232,
				7.471042633056641
			]
		}
	],
	"materials":[
		{
			"name":"Material__2",
			"pbrMetallicRoughness":{
				"baseColorTexture":{
					"index":0
				},
				"metallicFactor":0,
				"roughnessFactor":0.6000000238418579
			}
		}
	],
	"meshes":[
		{
			"name":"Material2",
			"primitives":[
				{
					"attributes":{
						"POSITION":0,
						"NORMAL":1,
						"TEXCOORD_0":2
					},
					"indices":3,
					"material":0
				}
			]
		},
		{
			"name":"Material2.001",
			"primitives":[
				{
					"attributes":{
						"POSITION":4,
						"NORMAL":5,
						"TEXCOORD_0":6
					},
					"indices":7,
					"material":0
				}
			]
		}
	],
	"textures":[
		{
			"sampler":0,
			"source":0
		}
	],
	"images":[
		{
			"mimeType":"image/png",
			"name":"Material__2_baseColor",
			"uri":"Material__2_baseColor.png"
		}
	],
	"accessors":[
		{
			"bufferView":0,
			"componentType":5126,
			"count":1629,
			"max":[
				0.4090000092983246,
				1.5866999626159668,
				0.08500000089406967
			],
			"min":[
				-0.4090000092983246,
				0.820900022983551,
				-0.1671999990940094
			],
			"type":"VEC3"
		},
		{
			"bufferView":1,
			"componentType":5126,
			"count":1629,
			"type":"VEC3"
		},
		{
			"bufferView":2,
			"componentType":5126,
			"count":1629,
			"type":"VEC2"
		},
		{
			"bufferView":3,
			"componentType":5123,
			"count":7116,
			"type":"SCALAR"
		},
		{
			"bufferView":4,
			"componentType":5126,
			"count":1655,
			"max":[
				0.22859999537467957,
				1.8082000017166138,
				0.1923999935388565
			],
			"min":[
				-0.22859999537467957,
				-0.0003000000142492354,
				-0.2199999988079071
			],
			"type":"VEC3"
		},
		{
			"bufferView":5,
			"componentType":5126,
			"count":1655,
			"type":"VEC3"
		},
		{
			"bufferView":6,
			"componentType":5126,
			"count":1655,
			"type":"VEC2"
		},
		{
			"bufferView":7,
			"componentType":5123,
			"count":8184,
			"type":"SCALAR"
		}
	],
	"bufferViews":[
		{
			"buffer":0,
			"byteLength":19548,
			"byteOffset":0,
			"target":34962
		},
		{
			"buffer":0,
			"byteLength":19548,
			"byteOffset":19548,
			"target":34962
		},
		{
			"buffer":0,
			"byteLength":13032,
			"byteOffset":39096,
			"target":34962
		},
		{
			"buffer":0,
			"byteLength":14232,
			"byteOffset":52128,
			"target":34963
		},
		{
			"buffer":0,
			"byteLength":19860,
			"byteOffset":66360,
			"target":34962
		},
		{
			"buffer":0,
			"byteLength":19860,
			"byteOffset":86220,
			"target":34962
		},
		{
			"buffer":0,
			"byteLength":13240,
			"byteOffset":106080,
			"target":34962
		},
		{
			"buffer":0,
			"byteLength":16368,
			"byteOffset":119320,
			"target":34963
		}
	],
	"samplers":[
		{
			"magFilter":9729,
			"minFilter":9987
		}
	],
	"buffers":[
		{
			"byteLength":135688,
			"uri":"iron_man.bin"
		}
	]
}
