{
	"asset":{
		"generator":"Khronos glTF Blender I/O v4.0.44",
		"version":"2.0"
	},
	"scene":0,
	"scenes":[
		{
			"name":"Scene",
			"nodes":[
				6
			]
		}
	],
	"nodes":[
		{
			"mesh":0,
			"name":"excalibur_model_excalibur_hilt_0"
		},
		{
			"mesh":1,
			"name":"excalibur_model_excalibur_metal2_0"
		},
		{
			"mesh":2,
			"name":"excalibur_model_excalibur_metal_0"
		},
		{
			"children":[
				0,
				1,
				2
			],
			"name":"excalibur_model",
			"translation":[
				0,
				4.051352500915527,
				0
			]
		},
		{
			"children":[
				3
			],
			"name":"RootNode"
		},
		{
			"children":[
				4
			],
			"name":"17d451fb888e446c922a1be4070fb09f.fbx",
			"rotation":[
				0.70710688829422,
				0,
				0,
				0.7071066498756409
			]
		},
		{
			"children":[
				5
			],
			"name":"Sketchfab_model",
			"rotation":[
				-0.70710688829422,
				0,
				0,
				0.7071066498756409
			]
		}
	],
	"materials":[
		{
			"doubleSided":true,
			"name":"excalibur_hilt",
			"pbrMetallicRoughness":{
				"baseColorTexture":{
					"index":0
				},
				"metallicFactor":0,
				"roughnessFactor":0.6000000238418579
			}
		},
		{
			"doubleSided":true,
			"name":"excalibur_metal2",
			"normalTexture":{
				"index":1
			},
			"pbrMetallicRoughness":{
				"baseColorTexture":{
					"index":2
				},
				"metallicFactor":0,
				"roughnessFactor":0.6000000238418579
			}
		},
		{
			"doubleSided":true,
			"name":"excalibur_metal",
			"normalTexture":{
				"index":3
			},
			"pbrMetallicRoughness":{
				"baseColorTexture":{
					"index":4
				},
				"metallicFactor":0,
				"roughnessFactor":0.6000000238418579
			}
		}
	],
	"meshes":[
		{
			"name":"excalibur_model_excalibur_hilt_0",
			"primitives":[
				{
					"attributes":{
						"POSITION":0,
						"NORMAL":1,
						"TEXCOORD_0":2
					},
					"indices":3,
					"material":0
				}
			]
		},
		{
			"name":"excalibur_model_excalibur_metal2_0",
			"primitives":[
				{
					"attributes":{
						"POSITION":4,
						"NORMAL":5,
						"TEXCOORD_0":6,
						"TEXCOORD_1":7
					},
					"indices":8,
					"material":1
				}
			]
		},
		{
			"name":"excalibur_model_excalibur_metal_0",
			"primitives":[
				{
					"attributes":{
						"POSITION":9,
						"NORMAL":10,
						"TEXCOORD_0":11,
						"TEXCOORD_1":12
					},
					"indices":13,
					"material":2
				}
			]
		}
	],
	"textures":[
		{
			"sampler":0,
			"source":0
		},
		{
			"sampler":0,
			"source":1
		},
		{
			"sampler":0,
			"source":0
		},
		{
			"sampler":0,
			"source":1
		},
		{
			"sampler":0,
			"source":0
		}
	],
	"images":[
		{
			"mimeType":"image/jpeg",
			"name":"excalibur_metal2_baseColor",
			"uri":"excalibur_metal2_baseColor.jpg"
		},
		{
			"mimeType":"image/jpeg",
			"name":"excalibur_metal2_normal",
			"uri":"excalibur_metal2_normal.jpg"
		}
	],
	"accessors":[
		{
			"bufferView":0,
			"componentType":5126,
			"count":28,
			"max":[
				0.1411447823047638,
				3.8989453315734863,
				0.12192284315824509
			],
			"min":[
				-0.14042392373085022,
				2.610081672668457,
				-0.12192284315824509
			],
			"type":"VEC3"
		},
		{
			"bufferView":1,
			"componentType":5126,
			"count":28,
			"type":"VEC3"
		},
		{
			"bufferView":2,
			"componentType":5126,
			"count":28,
			"type":"VEC2"
		},
		{
			"bufferView":3,
			"componentType":5123,
			"count":108,
			"type":"SCALAR"
		},
		{
			"bufferView":4,
			"componentType":5126,
			"count":32,
			"max":[
				0.2517557442188263,
				2.1582565307617188,
				0.07657667249441147
			],
			"min":[
				-0.2517557442188263,
				-3.980297565460205,
				-0.07657667249441147
			],
			"type":"VEC3"
		},
		{
			"bufferView":5,
			"componentType":5126,
			"count":32,
			"type":"VEC3"
		},
		{
			"bufferView":6,
			"componentType":5126,
			"count":32,
			"type":"VEC2"
		},
		{
			"bufferView":7,
			"componentType":5126,
			"count":32,
			"type":"VEC2"
		},
		{
			"bufferView":8,
			"componentType":5123,
			"count":72,
			"type":"SCALAR"
		},
		{
			"bufferView":9,
			"componentType":5126,
			"count":207,
			"max":[
				0.9283662438392639,
				4.031332015991211,
				0.1617155224084854
			],
			"min":[
				-0.9283662438392639,
				1.096624493598938,
				-0.1617155224084854
			],
			"type":"VEC3"
		},
		{
			"bufferView":10,
			"componentType":5126,
			"count":207,
			"type":"VEC3"
		},
		{
			"bufferView":11,
			"componentType":5126,
			"count":207,
			"type":"VEC2"
		},
		{
			"bufferView":12,
			"componentType":5126,
			"count":207,
			"type":"VEC2"
		},
		{
			"bufferView":13,
			"componentType":5123,
			"count":570,
			"type":"SCALAR"
		}
	],
	"bufferViews":[
		{
			"buffer":0,
			"byteLength":336,
			"byteOffset":0,
			"target":34962
		},
		{
			"buffer":0,
			"byteLength":336,
			"byteOffset":336,
			"target":34962
		},
		{
			"buffer":0,
			"byteLength":224,
			"byteOffset":672,
			"target":34962
		},
		{
			"buffer":0,
			"byteLength":216,
			"byteOffset":896,
			"target":34963
		},
		{
			"buffer":0,
			"byteLength":384,
			"byteOffset":1112,
			"target":34962
		},
		{
			"buffer":0,
			"byteLength":384,
			"byteOffset":1496,
			"target":34962
		},
		{
			"buffer":0,
			"byteLength":256,
			"byteOffset":1880,
			"target":34962
		},
		{
			"buffer":0,
			"byteLength":256,
			"byteOffset":2136,
			"target":34962
		},
		{
			"buffer":0,
			"byteLength":144,
			"byteOffset":2392,
			"target":34963
		},
		{
			"buffer":0,
			"byteLength":2484,
			"byteOffset":2536,
			"target":34962
		},
		{
			"buffer":0,
			"byteLength":2484,
			"byteOffset":5020,
			"target":34962
		},
		{
			"buffer":0,
			"byteLength":1656,
			"byteOffset":7504,
			"target":34962
		},
		{
			"buffer":0,
			"byteLength":1656,
			"byteOffset":9160,
			"target":34962
		},
		{
			"buffer":0,
			"byteLength":1140,
			"byteOffset":10816,
			"target":34963
		}
	],
	"samplers":[
		{
			"magFilter":9729,
			"minFilter":9987
		}
	],
	"buffers":[
		{
			"byteLength":11956,
			"uri":"excalibur.bin"
		}
	]
}
